<?xml version="1.0" encoding="utf-8"?>
<!-- Generator: Adobe Illustrator 27.1.0, SVG Export Plug-In . SVG Version: 6.00 Build 0)  -->
<svg version="1.1" id="Capa_1" xmlns="http://www.w3.org/2000/svg" xmlns:xlink="http://www.w3.org/1999/xlink" x="0px" y="0px"
	 viewBox="0 0 1080 1080" style="enable-background:new 0 0 1080 1080;" xml:space="preserve">
<style type="text/css">
	.st0{fill:#FFFFFF;}
</style>
<g>
	<g>
		<path d="M840.08,696.75c-25.66,26.11-48.86,49.44-70.94,71.3c-3.99,3.94-9.07,6.11-14.37,6.02c-4.95-0.06-9.57-2.07-13-5.64
			c-7.27-7.56-6.74-19.4,1.23-27.53c6.59-6.72,13.19-13.41,20.1-20.4l18.05-18.29h-12.17c-6.71,0-13.33,0.03-19.88,0.06
			c-15.79,0.07-30.7,0.14-45.83-0.21c-10.58-0.24-21.65-1.3-32.92-3.17c-17.01-2.81-33.63-10.27-52.29-23.49
			c-13.48-9.55-25.49-22.46-36.72-39.47c-8.21-12.41-16.62-24.97-24.76-37.12c-2.9-4.34-5.8-8.66-8.7-13
			c-0.75-1.13-1.53-2.19-2.41-3.42c-0.43-0.58-0.89-1.21-1.37-1.9l-4.1-5.75l-4.15,5.72c-0.5,0.68-0.97,1.31-1.42,1.92
			c-0.91,1.23-1.77,2.4-2.6,3.61c-4.52,6.66-9.03,13.48-13.38,20.08c-9.56,14.48-19.43,29.44-30.04,43.38
			c-20.71,27.23-48.71,44.17-83.23,50.34c-8.28,1.49-17.5,2.24-28.19,2.3c-31.34,0.19-63.2,0.16-94.02,0.12
			c-9.61-0.01-19.22-0.02-28.83-0.02c-11.25,0-20.13-8.19-20.2-18.62c-0.03-4.88,1.87-9.5,5.37-13.03
			c3.78-3.82,8.95-5.94,14.57-5.95c36.4-0.12,79.39-0.22,122.25-0.01h0.65c38.19,0,68.22-16.13,89.26-47.92
			c10.51-15.88,21.3-31.97,31.74-47.53l14.72-21.96c0.14-0.21,0.29-0.43,0.44-0.64c1.48-2.12,4.57-6.54,0.67-12.27
			c-6.23-9.15-12.46-18.54-18.49-27.62c-11.39-17.14-23.16-34.86-35.44-51.85c-18.07-25.02-44.2-38.57-75.59-39.2
			c-24.46-0.49-49.31-0.45-73.35-0.41c-17.98,0.03-36.57,0.05-54.83-0.14c-4.52-0.04-9.99-1.68-14.27-4.28
			c-6.86-4.15-9.26-11.92-6.42-20.8c2.17-6.8,10.03-12.34,17.51-12.34c12.43-0.01,24.86-0.07,37.29-0.12
			c30.14-0.13,61.31-0.27,91.93,0.25c48.27,0.83,86.95,22.31,114.95,63.82c39.63,58.76,79.27,118.4,116.18,174.09
			c15.96,24.07,35.55,38.81,59.89,45.05c8.69,2.22,17.6,3.45,26.49,3.63c16.18,0.34,32.03,0.27,48.82,0.21
			c6.61-0.03,13.27-0.05,20-0.05h10.64l-6.67-8.29c-0.46-0.56-0.83-1.06-1.19-1.52c-0.74-0.97-1.46-1.89-2.32-2.77
			c-3.26-3.27-6.52-6.53-9.78-9.77c-5.34-5.32-10.87-10.83-16.22-16.3c-7.87-8.06-8.2-19.9-0.74-27.55
			c3.43-3.53,8.02-5.5,12.92-5.55c5.18-0.05,10.14,2.04,14.02,5.87c23.74,23.46,47.75,47.57,71.36,71.7
			C848.07,678.34,848,688.69,840.08,696.75z"/>
		<path d="M840.08,696.75c-25.66,26.11-48.86,49.44-70.94,71.3c-3.99,3.94-9.07,6.11-14.37,6.02c-4.95-0.06-9.57-2.07-13-5.64
			c-7.27-7.56-6.74-19.4,1.23-27.53c6.59-6.72,13.19-13.41,20.1-20.4l18.05-18.29h-12.17c-6.71,0-13.33,0.03-19.88,0.06
			c-15.79,0.07-30.7,0.14-45.83-0.21c-10.58-0.24-21.65-1.3-32.92-3.17c-17.01-2.81-33.63-10.27-52.29-23.49
			c-13.48-9.55-25.49-22.46-36.72-39.47c-8.21-12.41-16.62-24.97-24.76-37.12c-2.9-4.34-5.8-8.66-8.7-13
			c-0.75-1.13-1.53-2.19-2.41-3.42c-0.43-0.58-0.89-1.21-1.37-1.9l-4.1-5.75l-4.15,5.72c-0.5,0.68-0.97,1.31-1.42,1.92
			c-0.91,1.23-1.77,2.4-2.6,3.61c-4.52,6.66-9.03,13.48-13.38,20.08c-9.56,14.48-19.43,29.44-30.04,43.38
			c-20.71,27.23-48.71,44.17-83.23,50.34c-8.28,1.49-17.5,2.24-28.19,2.3c-31.34,0.19-63.2,0.16-94.02,0.12
			c-9.61-0.01-19.22-0.02-28.83-0.02c-11.25,0-20.13-8.19-20.2-18.62c-0.03-4.88,1.87-9.5,5.37-13.03
			c3.78-3.82,8.95-5.94,14.57-5.95c36.4-0.12,79.39-0.22,122.25-0.01h0.65c38.19,0,68.22-16.13,89.26-47.92
			c10.51-15.88,21.3-31.97,31.74-47.53l14.72-21.96c0.14-0.21,0.29-0.43,0.44-0.64c1.48-2.12,4.57-6.54,0.67-12.27
			c-6.23-9.15-12.46-18.54-18.49-27.62c-11.39-17.14-23.16-34.86-35.44-51.85c-18.07-25.02-44.2-38.57-75.59-39.2
			c-24.46-0.49-49.31-0.45-73.35-0.41c-17.98,0.03-36.57,0.05-54.83-0.14c-4.52-0.04-9.99-1.68-14.27-4.28
			c-6.86-4.15-9.26-11.92-6.42-20.8c2.17-6.8,10.03-12.34,17.51-12.34c12.43-0.01,24.86-0.07,37.29-0.12
			c30.14-0.13,61.31-0.27,91.93,0.25c48.27,0.83,86.95,22.31,114.95,63.82c39.63,58.76,79.27,118.4,116.18,174.09
			c15.96,24.07,35.55,38.81,59.89,45.05c8.69,2.22,17.6,3.45,26.49,3.63c16.18,0.34,32.03,0.27,48.82,0.21
			c6.61-0.03,13.27-0.05,20-0.05h10.64l-6.67-8.29c-0.46-0.56-0.83-1.06-1.19-1.52c-0.74-0.97-1.46-1.89-2.32-2.77
			c-3.26-3.27-6.52-6.53-9.78-9.77c-5.34-5.32-10.87-10.83-16.22-16.3c-7.87-8.06-8.2-19.9-0.74-27.55
			c3.43-3.53,8.02-5.5,12.92-5.55c5.18-0.05,10.14,2.04,14.02,5.87c23.74,23.46,47.75,47.57,71.36,71.7
			C848.07,678.34,848,688.69,840.08,696.75z"/>
	</g>
	<g>
		<path d="M838.08,411.79l-11.92,12.01c-18.38,18.52-37.37,37.66-56.17,56.37c-5.09,5.06-11.53,7.47-17.7,6.6
			c-5.67-0.79-10.46-4.2-13.47-9.61c-4.08-7.33-2.61-16.56,3.69-22.98c5.4-5.51,10.98-11.05,16.4-16.39
			c2.94-2.91,5.89-5.83,8.83-8.76c0.95-0.95,1.81-1.9,2.9-3.11c0.56-0.62,1.18-1.3,1.91-2.11l7.86-8.54h-17.75
			c-6.29,0.01-12.65,0-18.99-0.01c-13.72-0.01-27.9-0.02-41.86,0.03c-37.04,0.13-66.32,15.76-87.03,46.45
			c-0.8,1.18-1.59,2.37-2.38,3.55c-3.42,5.12-6.96,10.41-10.82,15.14c-5.78,7.09-15.26,8.58-23.57,3.72
			c-7.66-4.48-11.11-14.32-7.7-21.95c2.44-5.49,5.87-10.6,9.51-16c1.04-1.56,2.08-3.11,3.09-4.67c11.32-17.35,26.12-31.84,44-43.08
			c21.73-13.65,45.96-20.65,72.01-20.8c8.14-0.05,16.36-0.07,24.54-0.07c6.47,0,12.92,0.01,19.26,0.02
			c6.45,0.01,12.9,0.02,19.35,0.02h18.15l-7.58-8.48c-0.69-0.78-1.29-1.47-1.82-2.08c-1.06-1.21-1.89-2.17-2.85-3.13
			c-2.95-2.97-5.94-5.94-8.91-8.89c-5.63-5.59-11.46-11.38-17.03-17.17c-7.1-7.39-7.27-18.96-0.39-26.32
			c6.59-7.06,18-7.55,25.99-1.15c1.25,1.01,2.43,2.17,3.85,3.59l6.65,6.67c19.93,20.03,39.87,40.05,59.77,60.11
			C848.61,391.57,848.67,401.14,838.08,411.79z"/>
		<path class="st0" d="M826.16,423.8c-18.38,18.52-37.37,37.66-56.17,56.37c-5.09,5.06-11.53,7.47-17.7,6.6
			c-5.67-0.79-10.46-4.2-13.47-9.61c-4.08-7.33-2.61-16.56,3.69-22.98c5.4-5.51,10.98-11.05,16.4-16.39
			c2.94-2.91,5.89-5.83,8.83-8.76c0.95-0.95,1.81-1.9,2.9-3.11c0.56-0.62,1.18-1.3,1.91-2.11l7.86-8.54h-17.75
			c-6.29,0.01-12.65,0-18.99-0.01c-13.72-0.01-27.9-0.02-41.86,0.03c-37.04,0.13-66.32,15.76-87.03,46.45
			c-0.8,1.18-1.59,2.37-2.38,3.55c-3.42,5.12-6.96,10.41-10.82,15.14c-5.78,7.09-15.26,8.58-23.57,3.72
			c-7.66-4.48-11.11-14.32-7.7-21.95c2.44-5.49,5.87-10.6,9.51-16c1.04-1.56,2.08-3.11,3.09-4.67c11.32-17.35,26.12-31.84,44-43.08
			c21.73-13.65,45.96-20.65,72.01-20.8c8.14-0.05,16.36-0.07,24.54-0.07c6.47,0,12.92,0.01,19.26,0.02
			c6.45,0.01,12.9,0.02,19.35,0.02h18.15l-7.58-8.48c-0.69-0.78-1.29-1.47-1.82-2.08c-1.06-1.21-1.89-2.17-2.85-3.13
			c-2.95-2.97-5.94-5.94-8.91-8.89c-5.63-5.59-11.46-11.38-17.03-17.17c-7.1-7.39-7.27-18.96-0.39-26.32
			c6.59-7.06,18-7.55,25.99-1.15c1.25,1.01,2.43,2.17,3.85,3.59l6.65,6.67c19.93,20.03,39.87,40.05,59.77,60.11
			c10.72,10.79,10.78,20.36,0.19,31.01L826.16,423.8z"/>
		<path d="M838.08,411.79l-11.92,12.01c-18.38,18.52-37.37,37.66-56.17,56.37c-5.09,5.06-11.53,7.47-17.7,6.6
			c-5.67-0.79-10.46-4.2-13.47-9.61c-4.08-7.33-2.61-16.56,3.69-22.98c5.4-5.51,10.98-11.05,16.4-16.39
			c2.94-2.91,5.89-5.83,8.83-8.76c0.95-0.95,1.81-1.9,2.9-3.11c0.56-0.62,1.18-1.3,1.91-2.11l7.86-8.54h-17.75
			c-6.29,0.01-12.65,0-18.99-0.01c-13.72-0.01-27.9-0.02-41.86,0.03c-37.04,0.13-66.32,15.76-87.03,46.45
			c-0.8,1.18-1.59,2.37-2.38,3.55c-3.42,5.12-6.96,10.41-10.82,15.14c-5.78,7.09-15.26,8.58-23.57,3.72
			c-7.66-4.48-11.11-14.32-7.7-21.95c2.44-5.49,5.87-10.6,9.51-16c1.04-1.56,2.08-3.11,3.09-4.67c11.32-17.35,26.12-31.84,44-43.08
			c21.73-13.65,45.96-20.65,72.01-20.8c8.14-0.05,16.36-0.07,24.54-0.07c6.47,0,12.92,0.01,19.26,0.02
			c6.45,0.01,12.9,0.02,19.35,0.02h18.15l-7.58-8.48c-0.69-0.78-1.29-1.47-1.82-2.08c-1.06-1.21-1.89-2.17-2.85-3.13
			c-2.95-2.97-5.94-5.94-8.91-8.89c-5.63-5.59-11.46-11.38-17.03-17.17c-7.1-7.39-7.27-18.96-0.39-26.32
			c6.59-7.06,18-7.55,25.99-1.15c1.25,1.01,2.43,2.17,3.85,3.59l6.65,6.67c19.93,20.03,39.87,40.05,59.77,60.11
			C848.61,391.57,848.67,401.14,838.08,411.79z"/>
	</g>
</g>
</svg>
